# xmcd CD database file
#
# Track frame offsets:
#	182
#	26260
#	44925
#	61912
#	103532
#	137892
#	156160
#	180262
#	220810
#	269455
#
# Disc length: 4341 seconds
#
# Revision: 5
# Processed by: cddbd v1.5.2PL0 Copyright (c) Steve Scherf et al.
# Submitted via: CDex 1.51
#
DISCID=8b10f30a
DTITLE=Bill Perry - Live In N.Y.C. (Manny's Car Wash 27 and 28/11/98)
DYEAR=1999
DGENRE=Blues
TTITLE0=Lost In The Blues (Live)
TTITLE1=Dust My Broom (Live)
TTITLE2=The Other Night (Live)
TTITLE3=All Along The Watchtower (Live)
TTITLE4=How Blue Can You Get (Live)
TTITLE5=Boogie Blues (Live)
TTITLE6=About Me (Why I Got The Blues) (Live)
TTITLE7=Johnny B. Goode (Live)
TTITLE8=Fade To Blue (Live)
TTITLE9=Little Wing (Live)
EXTD=YEAR: 1999
EXTT0=
EXTT1=
EXTT2=
EXTT3=
EXTT4=
EXTT5=
EXTT6=
EXTT7=
EXTT8=
EXTT9=
PLAYORDER=
